<?xml version="1.0" encoding="utf-8"?>
<?xml-stylesheet type="text/xsl" href="rss1.xsl"?>
<rss version="2.0" xmlns:atom="http://www.w3.org/2005/Atom" xmlns:content="http://purl.org/rss/1.0/modules/content/" xmlns:dc="http://purl.org/dc/elements/1.1/" xmlns:media="http://search.yahoo.com/mrss/">
<channel>
 <title>Getty</title>
 <link>http://www.gettyimg.com/</link>
 <atom:link href="http://www.gettyimg.com/" rel="self" type="application/rss+xml" />

 
                <item>
                <title><![CDATA[【Apple Music】WEB-RiP - Kings of Leon - Mustang [Apple HD Music Video]]]></title>
                <link><![CDATA[https://sharemania.us/threads/kings-of-leon-mustang-apple-hd-music-video.242683/]]></link>
                <description><![CDATA[<article>
<blockquote class="messageText SelectQuoteContainer ugc baseHtml">
<span style="font-size: 22px"><b>Kings of Leon - Mustang [Apple HD Music Video]</b></span><br>
<br>
<img src="https://imgur.com/V4DOZ5T.jpg" class="bbCodeImage LbImage" alt="[​IMG]" data-url="https://imgur.com/V4DOZ5T.jpg" style=""><br>
<br>
<div class="bbCodeBlock bbCodeCode">
<div class="type">Code:</div>
<pre>General
Format                         : MPEG-4
Codec ID                       : M4V  (isom/iso4/M4V /mp42)
File size                      : 255 MiB
Duration                       : 3 min 29 s
Overall bit rate mode          : Variable
Overall bit rate               : 10.2 Mb/s
Movie name                     : Mustang
Performer                      : Kings of Leon
Genre                          : Rock
ContentType                    : Music Video
Recorded date                  : UTC 2024-02-22 08:00:00
Encoded date                   : UTC 2024-04-20 15:55:06
Tagged date                    : UTC 2024-04-20 15:55:06
Copyright                      : ℗ 2024 LoveTap Records, LLC, under exclusive license to Capitol Records
Cover                          : Yes
Rating                         : None
GenreID                        : 1621
AppleStoreCountry              : United Kingdom
AlbumTitleID                   : 1883403
AppleStoreCatalogID            : 1731451297

Video
ID                             : 2
Format                         : AVC
Format/Info                    : Advanced Video Codec
Format profile                 : High@L4
Format settings                : CABAC / 4 Ref Frames
Format settings, CABAC         : Yes
Format settings, Reference fra : 4 frames
Codec ID                       : avc1
Codec ID/Info                  : Advanced Video Coding
Duration                       : 3 min 29 s
Bit rate                       : 9 926 kb/s
Maximum bit rate               : 23.3 Mb/s
Width                          : 1 920 pixels
Height                         : 1 080 pixels
Display aspect ratio           : 16:9
Frame rate mode                : Constant
Frame rate                     : 24.000 FPS
Color space                    : YUV
Chroma subsampling             : 4:2:0
Bit depth                      : 8 bits
Scan type                      : Progressive
Bits/(Pixel*Frame)             : 0.199
Stream size                    : 248 MiB (97%)
Title                          : Core Media Video
Encoded date                   : UTC 2024-02-17 01:19:54
Tagged date                    : UTC 2024-04-20 15:55:12
Color range                    : Limited
Color primaries                : BT.709
Transfer characteristics       : BT.709
Matrix coefficients            : BT.709
Codec configuration box        : avcC

Audio
ID                             : 1
Format                         : AAC LC
Format/Info                    : Advanced Audio Codec Low Complexity
Codec ID                       : mp4a-40-2
Duration                       : 3 min 29 s
Duration_LastFrame             : -20 ms
Bit rate mode                  : Variable
Bit rate                       : 271 kb/s
Maximum bit rate               : 379 kb/s
Channel(s)                     : 2 channels
Channel layout                 : L R
Sampling rate                  : 48.0 kHz
Frame rate                     : 46.875 FPS (1024 SPF)
Compression mode               : Lossy
Stream size                    : 6.77 MiB (3%)
Title                          : Core Media Audio
Encoded date                   : UTC 2024-02-17 01:11:56
Tagged date                    : UTC 2024-04-20 15:55:12
</pre>
</div>
<div class="bbCodeBlock bbCodeVfcHH HiddenContent">
<div class="attribution type">Hidden Content:</div>
<blockquote>You must reply before you can see the hidden data contained here.</blockquote>
</div>
<div class="messageTextEndMarker">&nbsp;</div>
</blockquote>
</article>]]></description>
                <author><![CDATA[Mu$iC @$YLUM]]></author>
                </item>

                
                <item>
                <title><![CDATA[【Cinema Center】MOVIE - Barbie A Fashion Fairytale (2010) 1080p Remastered]]></title>
                <link><![CDATA[https://sharemania.us/threads/barbie-a-fashion-fairytale-2010-1080p-remastered.242684/]]></link>
                <description><![CDATA[<article>
<blockquote class="messageText SelectQuoteContainer ugc baseHtml">
<div style="text-align: center"><img src="https://m.media-amazon.com/images/S/pv-target-images/1b75b991edd282325c3292e1bc93f39d71439adf6de64fc5511be8883ecf8c1e.jpg" class="bbCodeImage LbImage" alt="[​IMG]" data-url="https://m.media-amazon.com/images/S/pv-target-images/1b75b991edd282325c3292e1bc93f39d71439adf6de64fc5511be8883ecf8c1e.jpg" style=""> <br>
​</div><b>SCREENSHOTS:<br>
<img src="https://i.imgur.com/TGtap30.png" class="bbCodeImage LbImage" alt="[​IMG]" data-url="https://i.imgur.com/TGtap30.png" style=""> <br>
<img src="https://i.imgur.com/0gTzJNg.png" class="bbCodeImage LbImage" alt="[​IMG]" data-url="https://i.imgur.com/0gTzJNg.png" style=""> <br>
<img src="https://i.imgur.com/hmeAG47.png" class="bbCodeImage LbImage" alt="[​IMG]" data-url="https://i.imgur.com/hmeAG47.png" style=""> <br>
<img src="https://i.imgur.com/NEw1c7w.png" class="bbCodeImage LbImage" alt="[​IMG]" data-url="https://i.imgur.com/NEw1c7w.png" style=""> <br>
<img src="https://i.imgur.com/uulcA4u.png" class="bbCodeImage LbImage" alt="[​IMG]" data-url="https://i.imgur.com/uulcA4u.png" style=""> <br>
<img src="https://i.imgur.com/tNGpIVv.png" class="bbCodeImage LbImage" alt="[​IMG]" data-url="https://i.imgur.com/tNGpIVv.png" style=""> <img src="https://i.imgur.com/YtaczZO.png" class="bbCodeImage LbImage" alt="[​IMG]" data-url="https://i.imgur.com/YtaczZO.png" style=""> <br>
<br>
INFO:</b><br>
Remastered with: Topaz Video Enhancer<br>
Source: German DVD (576p)<br>
Audios: English 5.1<br>
<br>
<b>DOWNLOAD</b><br>
<div class="bbCodeBlock bbCodeVfcHH HiddenContent">
<div class="attribution type">Hidden Content:</div>
<blockquote>You must reply before you can see the hidden data contained here.</blockquote>
</div><b><br>
WATCH:</b><br>
-soon
<div class="messageTextEndMarker">&nbsp;</div>
</blockquote>
</article>]]></description>
                <author><![CDATA[zac26]]></author>
                </item>

                
                <item>
                <title><![CDATA[【Music Videos】Exemplary Сasual Dating - Real Women]]></title>
                <link><![CDATA[https://sharemania.us/threads/exemplary-%D0%A1asual-dating-real-women.242682/]]></link>
                <description><![CDATA[<article>
<blockquote class="messageText SelectQuoteContainer ugc baseHtml">
Freedom in relationships - that's our solution <br>
Authentic Damsels <br>
<a href="https://datesnow.life" target="_blank" class="externalLink" rel="nofollow">Finest Сasual Dating</a>
<div class="messageTextEndMarker">&nbsp;</div>
</blockquote>
</article>]]></description>
                <author><![CDATA[luizbalczarek]]></author>
                </item>

                </channel></rss>